
<?xml version="1.0" encoding="UTF-8"?>
<svg width="250" height="426" clip-rule="evenodd" fill-rule="evenodd" version="1.1" viewBox="0 0 250 426" xml:space="preserve" xmlns="http://www.w3.org/2000/svg" xmlns:cc="http://creativecommons.org/ns#" xmlns:dc="http://purl.org/dc/elements/1.1/">
    <g transform="matrix(.80764 0 0 .80789 .012709 -.0023179)" fill="#333" fill-rule="nonzero">
        <path d="m8.215 7.436c3.994-0.091 7.745 3.158 8.167 7.142 0.504 3.502-1.555 7.138-4.782 8.558-1.957 0.972-4.164 0.673-6.267 0.723h-2.056v6.583h-3.253c6e-3 -5.079-0.013-10.159 0.01-15.239 0.106-3.785 3.205-7.173 6.946-7.677 0.408-0.06 0.823-0.09 1.235-0.09zm0 13.168c2.348 0.057 4.55-1.773 4.901-4.1 0.468-2.341-1.026-4.857-3.309-5.558-2.205-0.784-4.859 0.246-5.936 2.329-0.835 1.424-0.538 3.104-0.594 4.671v2.658h4.938zm9.737-13.247h3.217v16.422h-3.217v-16.422zm12.889 10.328h0.115l4.575 6.1h3.988l-6.217-8.446 5.513-7.974h-3.988l-3.871 5.629h-0.116l-3.871-5.629h-3.988l5.512 7.975-6.215 8.443h3.987l4.576-6.098z"/>
        <path d="m46.81 7.357c3.259-0.064 6.384 2.071 7.591 5.085 0.628 1.401 0.618 2.951 0.598 4.454v6.883c-2.903-0.01-5.809 0.02-8.715-0.016-3.337-0.162-6.391-2.597-7.346-5.792-0.876-2.776-0.149-6.001 1.915-8.078 1.54-1.593 3.73-2.555 5.954-2.534l3e-3 -2e-3zm4.938 13.167c-0.014-1.826 0.03-3.653-0.025-5.478-0.192-2.446-2.458-4.496-4.913-4.432-2.335-0.057-4.535 1.753-4.901 4.063-0.428 2.219 0.847 4.636 2.963 5.463 1.304 0.568 2.745 0.332 4.123 0.382h2.755l-2e-3 2e-3zm13.053-13.088c3.854-0.094 7.457 2.939 8.071 6.733 0.697 3.6-1.335 7.486-4.687 8.967-3.274 1.546-7.484 0.55-9.735-2.28-1.394-1.644-1.997-3.831-1.878-5.962v-14.04h3.255v6.583h4.975l-1e-3 -1e-3zm0 13.168c2.472 0.065 4.731-2.01 4.913-4.47 0.309-2.444-1.502-4.902-3.921-5.346-1.338-0.185-2.696-0.06-4.044-0.1h-1.922c0.02 1.857-0.045 3.715 0.038 5.568 0.259 2.45 2.474 4.392 4.937 4.343l-1e-3 5e-3zm17.637-13.247c3.259-0.064 6.385 2.071 7.592 5.085 0.629 1.401 0.62 2.951 0.6 4.454v6.883c-2.904-0.01-5.809 0.02-8.715-0.016-3.336-0.162-6.391-2.597-7.346-5.792-0.877-2.776-0.15-6.001 1.914-8.078 1.539-1.593 3.728-2.555 5.952-2.534l3e-3 -2e-3zm4.937 13.167c-0.013-1.826 0.03-3.653-0.023-5.478-0.19-2.446-2.457-4.496-4.911-4.432-2.335-0.057-4.536 1.753-4.9 4.063-0.428 2.219 0.846 4.636 2.961 5.463 1.303 0.568 2.743 0.332 4.121 0.382h2.753l-1e-3 2e-3zm21.171-13.128c-6e-3 5.068 0.014 10.136-0.01 15.203-0.118 3.988-3.546 7.572-7.546 7.78-0.76 0.04-1.522 0.014-2.283 0.02v-3.254c1.39-7e-3 2.875 0.135 4.104-0.652 1.538-0.863 2.514-2.602 2.48-4.36-2.886 2.328-7.358 2.208-10.164-0.194-2.044-1.65-3.161-4.305-3.003-6.917v-7.625h3.254c0.015 2.899-0.029 5.8 0.024 8.698 0.177 2.34 2.226 4.338 4.572 4.456 2.418 0.249 4.799-1.574 5.219-3.964 0.183-1.338 0.06-2.7 0.097-4.048v-5.14h3.257l-1e-3 -3e-3z"/>
    </g><g fill-rule="nonzero">
    <path d="m166 15.884-4.413-4.432c1.845-2.456 1.619-6.188-0.484-8.421-2.022-2.268-5.628-2.869-8.25-1.325-2.52 1.405-3.927 4.542-3.242 7.367 0.643 2.951 3.456 5.273 6.484 5.229 1.394 7e-3 2.788-0.448 3.918-1.268 1.497 1.499 2.984 3.008 4.49 4.502 0.909 0.807 2.487-0.551 1.612-1.526l-0.113-0.127-2e-3 1e-3zm-9.852-3.165c-2.599 0.072-4.993-2.171-5.116-4.781-0.204-2.45 1.569-4.89 3.974-5.386 2.321-0.553 4.927 0.731 5.847 2.956 1.003 2.251 0.147 5.176-1.992 6.436-0.807 0.505-1.758 0.78-2.712 0.775h-1e-3z" fill="#fff"/>
    <path d="m68.211 251.62c-0.677 0.299-1.404 0.503-2.166 0.594 0.779-0.468 1.377-1.205 1.658-2.087-0.729 0.431-1.536 0.744-2.394 0.914-0.687-0.733-1.669-1.191-2.753-1.191-2.435 0-4.225 2.27-3.676 4.631-3.133-0.156-5.913-1.658-7.772-3.94-0.988 1.695-0.513 3.914 1.167 5.036-0.618-0.018-1.2-0.19-1.709-0.471-0.04 1.748 1.212 3.381 3.026 3.745-0.531 0.145-1.113 0.179-1.704 0.065 0.479 1.499 1.873 2.59 3.523 2.62-1.585 1.242-3.582 1.798-5.583 1.562 1.671 1.071 3.653 1.696 5.784 1.696 7.002 0 10.959-5.915 10.72-11.219 0.735-0.532 1.374-1.196 1.88-1.953l-1e-3 -2e-3z" fill="#555"/>
    <path d="m110.09 202.4c1.042 0 1.977-0.567 2.615-0.996v8.113c-0.637 0.428-1.574 0.996-2.614 0.996-1.041 0-1.974-0.309-2.613-0.737-0.637-0.43-1.574-0.739-2.614-0.739-1.041 0-1.975 0.532-2.614 0.961v-8.112c0.637-0.428 1.574-0.958 2.615-0.958 1.04 0 1.977 0.309 2.615 0.737 0.638 0.429 1.574 0.737 2.614 0.737l-4e-3 -2e-3zm-9.586-2.346c0.481 0 0.872 0.39 0.872 0.871v13.073h-1.744v-13.073c0-0.481 0.393-0.871 0.874-0.871h-2e-3z" fill="#fff"/>
    <path d="m99.627 100.45h21.913v1.992h-21.913v-1.992zm0 6.972h21.913v1.992h-21.913v-1.992zm0 6.972h21.913v1.992h-21.913v-1.992z" fill="#636363"/>
    </g><g transform="matrix(.57143 0 0 .57143 30.687 13.886)">


                <g transform="translate(121.3 63.199)">
                    <path d="m8.363 21.438c-0.65 0-1.27-0.265-1.712-0.738-0.355-0.384-0.591-0.885-0.65-1.417-0.206 0.059-0.443 0.089-0.679 0.089-0.797 0-1.535-0.413-1.978-1.092-0.059-0.089-0.118-0.207-0.177-0.325l-3.099 6.494c-0.236 0.531 0.177 1.092 0.738 1.033l2.538-0.265c0.266-0.03 0.532 0.088 0.679 0.324l1.417 2.126c0.325 0.472 1.033 0.413 1.27-0.089l3.158-6.642s0-0.029-0.029-0.029c-0.414 0.354-0.945 0.531-1.476 0.531z" fill="#fff" fill-rule="nonzero"/>
                </g>
                <g transform="translate(121.3 63.199)">
                    <path d="m23.801 24.449-3.07-6.435c-0.059 0.118-0.118 0.207-0.177 0.295-0.443 0.679-1.181 1.092-1.978 1.092-0.236 0-0.472-0.029-0.708-0.118-0.059 0.532-0.266 1.033-0.65 1.417-0.442 0.472-1.062 0.738-1.712 0.738-0.561 0-1.062-0.177-1.476-0.531l-0.029 0.029 3.158 6.642c0.236 0.531 0.974 0.561 1.27 0.089l1.387-2.126c0.148-0.236 0.413-0.354 0.708-0.324l2.539 0.265c0.561 0.089 0.974-0.502 0.738-1.033z" fill="#fff" fill-rule="nonzero"/>
                </g>
                <g transform="translate(121.3 63.199)">
                    <path d="m14.669 18.949c0.653 0.705 1.816 0.225 1.788-0.734v-0.029c-0.028-0.762 0.767-1.27 1.448-0.959h0.028c0.88 0.395 1.76-0.48 1.363-1.355-0.312-0.678 0.199-1.468 0.965-1.44h0.029c0.936 0.028 1.419-1.129 0.738-1.779l-0.029-0.028c-0.567-0.508-0.369-1.439 0.341-1.693 0.88-0.339 0.88-1.581 0-1.92-0.71-0.254-0.908-1.186-0.341-1.694l0.029-0.028c0.681-0.649 0.198-1.807-0.738-1.778h-0.029c-0.766 0.028-1.277-0.763-0.965-1.44 0.397-0.847-0.511-1.75-1.363-1.355h-0.028c-0.71 0.311-1.476-0.198-1.448-0.96v-0.028c0.028-0.932-1.135-1.411-1.788-0.734-0.511 0.565-1.448 0.367-1.732-0.339-0.341-0.875-1.59-0.875-1.931 0v0.029c-0.283 0.705-1.192 0.875-1.703 0.338-0.653-0.677-1.817-0.197-1.788 0.734v0.028c0.028 0.763-0.767 1.271-1.448 0.96-0.88-0.395-1.76 0.508-1.363 1.355 0.312 0.678-0.199 1.468-0.965 1.44h-0.029c-0.936-0.028-1.419 1.129-0.738 1.778l0.029 0.029c0.567 0.508 0.369 1.439-0.341 1.693-0.88 0.339-0.88 1.581 0 1.92 0.71 0.254 0.908 1.185 0.341 1.693l-0.029 0.029c-0.681 0.649-0.198 1.806 0.738 1.778h0.029c0.766-0.028 1.277 0.762 0.965 1.44-0.397 0.875 0.511 1.75 1.363 1.355 0.709-0.311 1.476 0.197 1.448 0.96v0.028c-0.029 0.931 1.135 1.411 1.788 0.734 0.511-0.565 1.448-0.367 1.703 0.339v0.028c0.341 0.875 1.59 0.875 1.931 0 0.284-0.763 1.192-0.96 1.732-0.395zm-2.697-2.654c-3.521 0-6.36-2.851-6.36-6.323s2.839-6.323 6.36-6.323c3.52 0 6.359 2.851 6.359 6.323s-2.839 6.323-6.359 6.323z" fill="#fff" fill-rule="nonzero"/>
                </g>
                <g transform="translate(121.3 63.199)">
                    <path d="m8 10c0-2.2 1.8-4 4-4s4 1.8 4 4-1.8 4-4 4-4-1.8-4-4z" fill="#fff" fill-rule="nonzero"/>
                </g>


    </g>
    <g transform="translate(.0059761 .0017086)" fill="#fff" fill-rule="nonzero">
        <path d="m61.417 357.1h-0.54c-0.076 0-0.141 0.025-0.191 0.076-0.05 0.05-0.075 0.117-0.075 0.197v2.733c0 0.375-0.132 0.697-0.396 0.964s-0.582 0.402-0.952 0.402h-7.012c-0.372 0-0.687-0.133-0.953-0.401s-0.396-0.588-0.396-0.963v-7.102c0-0.375 0.133-0.697 0.397-0.963s0.582-0.403 0.953-0.403h5.933c0.08 0 0.144-0.025 0.194-0.076 0.05-0.053 0.076-0.118 0.076-0.197v-0.548c0-0.08-0.026-0.145-0.076-0.196-0.049-0.05-0.115-0.077-0.194-0.077h-5.934c-0.667 0-1.239 0.241-1.713 0.721-0.475 0.481-0.713 1.06-0.713 1.737v7.102c0 0.675 0.239 1.255 0.712 1.735 0.474 0.481 1.046 0.721 1.713 0.721h7.012c0.667 0 1.24-0.239 1.713-0.721 0.476-0.48 0.714-1.06 0.714-1.736v-2.731c0-0.08-0.026-0.145-0.076-0.197-0.05-0.05-0.115-0.076-0.194-0.076l-2e-3 -1e-3z"/>
        <path d="m64.761 349.62c-0.106-0.11-0.232-0.163-0.379-0.163h-4.312c-0.148 0-0.274 0.054-0.381 0.163-0.106 0.107-0.159 0.236-0.159 0.383s0.053 0.276 0.159 0.384l1.484 1.502-5.495 5.565c-0.053 0.055-0.081 0.12-0.081 0.194s0.028 0.14 0.083 0.197l0.962 0.972c0.056 0.057 0.12 0.084 0.194 0.084 0.073 0 0.139-0.027 0.194-0.085l5.494-5.565 1.484 1.502c0.107 0.11 0.233 0.163 0.378 0.163 0.146 0 0.273-0.054 0.381-0.162 0.107-0.11 0.159-0.236 0.159-0.384v-4.37c0-0.147-0.052-0.276-0.159-0.383l-6e-3 3e-3z"/>
    </g>
    <path d="m206.2 250.49c-3.501 0-6.339 2.428-6.339 5.425 0 1.564 0.776 2.968 2.012 3.958-0.233 0.632-0.626 1.458-1.295 2.302 1.268 0 2.898-0.175 4.155-0.986 0.472 0.097 0.962 0.152 1.468 0.152 3.504 0 6.343-2.431 6.343-5.426s-2.839-5.425-6.341-5.425h-3e-3z" fill="none" stroke="#fff" stroke-width="1.26px"/>
    <g transform="translate(.0059761 .0017086)" fill="#fff">
        <path d="m162.5 352.02v8.536h-10.458v-8.536h10.458m0.872-0.854h-12.202v10.244h12.202v-10.244zm-13.945-1.708v10.245h0.874v-9.39h11.329v-0.855h-12.203z" fill-rule="nonzero"/>
        <rect x="151.73" y="351.68" width="11.016" height="9.357"/>
    </g>
    <g transform="translate(.0059761 .0017086)">
        <rect x="203.23" y="150.25" width="4.004" height="6.529" fill="#666"/>
        <g transform="matrix(.8037 0 0 .77824 535.52 420.48)">

                <clipPath id="_clip1">
                    <path d="m-418.72-341.18 7.746-7.784 7.747 7.784-7.747 7.784-7.746-7.784z"/>
                </clipPath>
                <g clip-path="url(#_clip1)">
                    <rect x="-418.44" y="-339.79" width="14.94" height="10.008" fill="#666"/>
                </g>

        </g>
    </g><g fill-rule="nonzero">
    <path d="m205.12 100.45c-3.256 0-5.898 2.277-5.898 5.087 0 1.464 0.723 2.782 1.873 3.71-0.217 0.593-0.583 1.368-1.206 2.159 1.181 0 2.698-0.164 3.865-0.926 0.44 0.092 0.896 0.144 1.367 0.144 3.26 0 5.902-2.277 5.902-5.087 0-2.809-2.642-5.087-5.9-5.087z" fill="#666"/>
    <path d="m160.05 156.17-9.381-5.723c-0.685-0.441-1.245-0.116-1.245 0.722v11.11c0 0.839 0.56 1.163 1.245 0.722l9.379-5.723s0.332-0.231 0.332-0.554-0.331-0.554-0.331-0.554zm-2.069 95.96 3.113 3.112-7.468 7.467-3.112-3.113 7.468-7.468zm3.703 2.491-3.079-3.082 1.319-1.32c0.488-0.488 1.275-0.488 1.763 0l1.32 1.318c0.486 0.486 0.486 1.275 0 1.76zm-11.948 9.178-0.311-0.312 0.817-2.606 2.102 2.102-2.608 0.817z" fill="#fff"/>
    <path d="m207.8 180.63c0 0.975-0.68 1.763-1.522 1.763-0.841 0-1.524-0.788-1.524-1.763 0-0.974 0.683-1.762 1.524-1.762 0.842 0 1.524 0.788 1.524 1.762h-2e-3zm5.378-0.288s-2.47 4.771-6.962 4.771c-4.171 0-6.982-4.771-6.982-4.771s2.585-4.194 6.982-4.194c4.47 0 6.962 4.194 6.962 4.194zm-4.195 0.286c0-1.733-1.213-3.135-2.709-3.135-1.494 0-2.706 1.404-2.706 3.135 0 1.732 1.215 3.138 2.709 3.138s2.709-1.404 2.709-3.138h-3e-3z" fill="#666"/>
    <path d="m68.211 301.43c-0.677 0.299-1.404 0.503-2.166 0.594 0.779-0.468 1.377-1.205 1.658-2.087-0.729 0.431-1.536 0.744-2.394 0.914-0.687-0.733-1.669-1.192-2.753-1.192-2.435 0-4.225 2.271-3.676 4.632-3.133-0.157-5.913-1.659-7.772-3.94-0.988 1.695-0.513 3.914 1.167 5.035-0.618-0.017-1.2-0.189-1.709-0.471-0.04 1.748 1.212 3.382 3.026 3.745-0.531 0.146-1.113 0.18-1.704 0.066 0.479 1.499 1.873 2.59 3.523 2.62-1.585 1.242-3.582 1.797-5.583 1.561 1.671 1.072 3.653 1.697 5.784 1.697 7.002 0 10.959-5.915 10.72-11.22 0.735-0.531 1.374-1.195 1.88-1.952l-1e-3 -2e-3z" fill="#fff"/>
    <path d="m160.81 109.56c0 2.512-2.042 4.552-4.554 4.552s-4.552-2.04-4.552-4.552 2.04-4.554 4.552-4.554h2.277l0.013 2.291 3.422-3.426-3.422-3.417v2.278h-2.291c-3.769 0-6.829 3.058-6.829 6.83s3.062 6.828 6.833 6.828 6.83-3.057 6.83-6.829h-2.276l-3e-3 -1e-3z" fill="#666"/>
    <path d="m156.15 52.442 2.447 2.444-5.867 5.867-2.446-2.443 5.866-5.87v2e-3zm2.911 1.955-2.421-2.42 1.036-1.036c0.384-0.381 1.003-0.381 1.385 0l1.036 1.036c0.383 0.385 0.383 1.003 0 1.385l-1.036 1.035zm-9.387 7.216-0.246-0.245 0.644-2.048 1.65 1.651-2.048 0.642z" fill="#808080"/>
    </g><g transform="translate(.0059761 .0017086)" fill="#fff" fill-rule="nonzero">
        <path d="m213.24 57.094c-0.53-0.536-1.235-0.863-1.978-0.931 0.644-0.577 1.053-1.414 1.053-2.348 0-1.748-1.419-3.166-3.166-3.166-1.67 0-3.037 1.292-3.155 2.931 1.486 0.642 2.53 2.121 2.53 3.841 0 0.628-0.143 1.239-0.408 1.796 0.381 0.199 0.735 0.458 1.043 0.769 0.789 0.792 1.238 1.889 1.227 3.008v0.043l-0.029 0.528h3.774l0.03-4.181c8e-3 -0.856-0.328-1.675-0.93-2.28l9e-3 -0.01z"/>
        <path d="m206.44 59.781c0.644-0.578 1.052-1.414 1.052-2.351 0-1.746-1.417-3.163-3.165-3.163s-3.165 1.417-3.165 3.164c0 0.93 0.407 1.766 1.049 2.348-1.645 0.127-2.944 1.489-2.958 3.167l-0.03 0.63h10.096l0.03-0.583c7e-3 -0.853-0.329-1.675-0.932-2.281-0.534-0.538-1.235-0.863-1.978-0.931h1e-3z"/>
    </g>
    <path d="m106.72 305.63v2.391h4.039c-0.161 1.026-1.22 3.008-4.034 3.008-2.427 0-4.409-1.972-4.409-4.403 0-2.432 1.978-4.405 4.405-4.405 1.386 0 2.311 0.578 2.838 1.076l1.932-1.821c-1.241-1.138-2.848-1.823-4.767-1.823-3.935 0-7.114 3.113-7.114 6.972 0 3.855 3.181 6.973 7.114 6.973 4.107 0 6.83-2.829 6.83-6.813 0-0.458-0.052-0.811-0.113-1.156l-6.721 1e-3z" fill="#fff"/><g fill-rule="nonzero">
    <path d="m22.825 212.71-2.879 0.045 0.03-6.37s2.45 0.185 3.048-0.074c0.5-0.13 3.818-1.923 4.821-2.952 0.846-0.759 1.135-1.537 1.462-2.544 0.261-1.016 1.213-0.797 1.63-0.558 0.545 0.316 0.612 1.021 0.555 1.598-0.073 0.438-0.274 1.12-0.602 1.737-0.252 0.474-0.671 0.881-0.771 1.048-0.128 0.206-0.641 0.603-0.441 0.668 1.093 0.245 1.597 0.313 3.148 0.725 0.587 0.325 0.73 0.415 0.896 1.031 0.12 0.632-0.222 1.369-0.75 1.842-0.099 0.056-0.552 0.623-0.552 0.623s-1.167 3.291-1.778 3.989c-0.388 0.347-0.654 0.428-1.102 0.483-0.279 0-1.484-0.056-2.846-0.223-1.641-0.256-2.715-1.034-3.866-1.068z" fill="#fff"/>
    <path d="m201.73 210.9-2.496 0.038 0.028-5.458s2.124 0.159 2.642-0.064c0.436-0.111 3.314-1.647 4.184-2.53 0.733-0.652 0.986-1.318 1.269-2.181 0.226-0.872 1.051-0.685 1.414-0.478 0.472 0.269 0.53 0.875 0.48 1.369-0.062 0.376-0.236 0.96-0.521 1.488-0.219 0.408-0.583 0.757-0.669 0.899-0.11 0.176-0.555 0.518-0.382 0.574 0.947 0.209 1.385 0.269 2.729 0.622 0.508 0.276 0.633 0.355 0.777 0.882 0.105 0.541-0.193 1.173-0.65 1.578-0.087 0.048-0.478 0.534-0.478 0.534s-1.013 2.824-1.544 3.422c-0.336 0.298-0.568 0.368-0.956 0.414-0.243 0-1.285-0.047-2.468-0.189-1.425-0.219-2.356-0.887-3.355-0.917l-4e-3 -3e-3z" fill="#666"/>
    <path d="m226.12 249.85c-3.85 0-6.973 2.691-6.973 6.012 0 1.731 0.857 3.286 2.215 4.384-0.256 0.7-0.69 1.616-1.425 2.552 1.395 0 3.187-0.194 4.569-1.094 0.518 0.108 1.058 0.169 1.614 0.169 3.851 0 6.972-2.692 6.972-6.011 0-3.32-3.121-6.012-6.972-6.012z" fill="#fff"/>
    </g><path d="m3.287 212.18-2.605 0.041 0.027-5.769s2.218 0.17 2.758-0.066c0.453-0.118 3.456-1.742 4.364-2.675 0.766-0.688 1.027-1.391 1.324-2.306 0.236-0.919 1.099-0.722 1.476-0.503 0.494 0.285 0.553 0.924 0.502 1.447-0.065 0.397-0.248 1.015-0.544 1.572-0.228 0.43-0.608 0.8-0.699 0.952-0.115 0.185-0.58 0.544-0.399 0.606 0.989 0.221 1.445 0.281 2.851 0.654 0.529 0.292 0.659 0.375 0.808 0.932 0.11 0.573-0.2 1.242-0.678 1.671-0.09 0.051-0.499 0.564-0.499 0.564s-1.058 2.982-1.61 3.615c-0.351 0.314-0.592 0.389-0.997 0.438-0.254 0-1.344-0.05-2.577-0.203-1.487-0.231-2.459-0.937-3.501-0.967l-1e-3 -3e-3z" fill="none" stroke="#fff" stroke-width="1.31px"/><g fill-rule="nonzero">

    <path d="m161.81 209.79c-0.73 0-1.387 0.312-1.853 0.811l-5.445-2.713c0.02-0.126 0.032-0.256 0.032-0.388 0-0.129-0.013-0.256-0.03-0.378l5.438-2.684c0.465 0.503 1.126 0.817 1.858 0.817 1.412 0 2.558-1.163 2.558-2.6 0-1.438-1.146-2.602-2.556-2.602-1.411 0-2.56 1.165-2.56 2.601 0 0.13 0.014 0.255 0.03 0.379l-5.435 2.682c-0.467-0.502-1.126-0.817-1.859-0.817-1.414 0-2.56 1.166-2.56 2.602 0 1.437 1.146 2.602 2.56 2.602 0.73 0 1.385-0.315 1.853-0.813l5.445 2.712c-0.02 0.126-0.032 0.256-0.032 0.388 0 1.438 1.145 2.602 2.558 2.602 1.412 0 2.56-1.165 2.56-2.603 0-1.437-1.146-2.601-2.56-2.601l-2e-3 3e-3z" fill="#777"/>
    <path d="m156.89 299.66c-4.125 0-7.47 3.345-7.47 7.47 0 3.058 1.84 5.688 4.472 6.843-0.021-0.522-5e-3 -1.148 0.13-1.716l0.96-4.07s-0.239-0.475-0.239-1.18c0-1.108 0.642-1.934 1.442-1.934 0.68 0 1.006 0.51 1.006 1.121 0 0.683-0.434 1.703-0.657 2.65-0.189 0.793 0.396 1.439 1.178 1.439 1.414 0 2.367-1.818 2.367-3.971 0-1.638-1.103-2.863-3.108-2.863-2.267 0-3.679 1.689-3.679 3.576 0 0.652 0.192 1.111 0.493 1.466 0.139 0.163 0.157 0.229 0.107 0.416l-0.152 0.6c-0.05 0.189-0.203 0.257-0.374 0.187-1.043-0.426-1.529-1.568-1.529-2.853 0-2.122 1.79-4.668 5.338-4.668 2.854 0 4.731 2.064 4.731 4.279 0 2.928-1.63 5.12-4.032 5.12-0.806 0-1.563-0.439-1.824-0.933 0 0-0.432 1.724-0.525 2.054-0.159 0.578-0.468 1.152-0.752 1.6 0.672 0.199 1.381 0.307 2.117 0.307 4.126 0 7.471-3.345 7.471-7.47 0-4.126-3.345-7.471-7.471-7.471v1e-3zm-141.95 2.49c0-1.306-1.181-2.49-2.49-2.49h-9.96c-1.308 0-2.49 1.184-2.49 2.49v9.961c0 1.309 1.182 2.49 2.49 2.49h4.98v-5.643h-1.824v-2.49h1.826v-0.972c0-1.673 1.257-3.181 2.801-3.181h2.014v2.49h-2.016c-0.219 0-0.476 0.269-0.476 0.669v0.991h2.49v2.49h-2.49v5.646h2.654c1.308 0 2.49-1.181 2.49-2.49v-9.961h1e-3z" fill="#fff"/>
    <path d="m14.941 252.34c0-1.307-1.182-2.49-2.49-2.49h-9.96c-1.309 0-2.49 1.183-2.49 2.49v9.96c0 1.31 1.181 2.49 2.49 2.49h4.98v-5.643h-1.826v-2.49h1.826v-0.972c0-1.673 1.257-3.181 2.801-3.181h2.014v2.49h-2.016c-0.219 0-0.476 0.269-0.476 0.669v0.991h2.49v2.49h-2.49v5.646h2.654c1.308 0 2.49-1.18 2.49-2.49v-9.96h3e-3z" fill="#555"/>
    </g><path d="m108.33 233.92h-8.715c-1.72 0-3.113 1.395-3.113 3.113v8.715c0 1.718 1.394 3.113 3.113 3.113h8.715c1.719 0 3.112-1.395 3.112-3.113v-8.715c0-1.719-1.394-3.113-3.112-3.113zm-6.433 10.376c-1.606 0-2.905-1.3-2.905-2.906s1.299-2.905 2.905-2.905c0.784 0 1.441 0.286 1.947 0.759l-0.787 0.76c-0.215-0.207-0.594-0.448-1.158-0.448-0.992 0-1.8 0.821-1.8 1.834s0.806 1.835 1.799 1.835c1.15 0 1.581-0.827 1.648-1.253h-1.646v-0.996h2.743c0.026 0.145 0.047 0.289 0.047 0.481 0 1.66-1.113 2.839-2.789 2.839h-4e-3zm7.055-2.49h-1.245v1.245h-0.83v-1.245h-1.246v-0.83h1.246v-1.245h0.83v1.245h1.245v0.83z" fill="none"/><g fill-rule="nonzero">
    <path d="m103.75 349.46c-2.291 0-4.14 1.796-4.14 4.014v6.912c0 2.219 1.85 4.014 4.14 4.014h6.66c2.291 0 4.14-1.795 4.14-4.014v-6.912c0-2.218-1.85-4.014-4.14-4.014h-6.66zm7.47 2.397c0.55 0 0.996 0.446 0.996 0.996s-0.446 0.996-0.996 0.996c-0.551 0-0.996-0.446-0.996-0.996s0.445-0.996 0.996-0.996zm-4.14 1.058c2.201 0 3.984 1.783 3.984 3.984 0 2.199-1.783 3.984-3.984 3.984s-3.984-1.785-3.984-3.984c0-2.201 1.783-3.984 3.984-3.984zm0 1.494c-1.385 0-2.52 1.136-2.52 2.52 0 1.385 1.135 2.52 2.52 2.52 1.386 0 2.522-1.135 2.522-2.52 0-1.384-1.136-2.52-2.522-2.52z" fill="#555"/>
    <path d="m203.35 299.66c-2.289 0-4.14 1.796-4.14 4.014v6.913c0 2.218 1.851 4.014 4.14 4.014h6.661c2.289 0 4.139-1.796 4.139-4.014v-6.913c0-2.218-1.85-4.014-4.139-4.014h-6.661zm7.47 2.397c0.55 0 0.996 0.446 0.996 0.996 0 0.551-0.446 0.996-0.996 0.996s-0.996-0.445-0.996-0.996c0-0.55 0.446-0.996 0.996-0.996zm-4.14 1.059c2.201 0 3.984 1.782 3.984 3.984 0 2.198-1.783 3.984-3.984 3.984s-3.984-1.786-3.984-3.984c0-2.202 1.783-3.984 3.984-3.984zm0 1.494c-1.384 0-2.52 1.135-2.52 2.52 0 1.384 1.136 2.519 2.52 2.519 1.385 0 2.52-1.135 2.52-2.519 0-1.385-1.135-2.52-2.52-2.52z" fill="#fff"/>
    <path d="m19.52 118.14-5.191-5.214c2.171-2.891 1.904-7.283-0.571-9.909-2.378-2.666-6.621-3.373-9.707-1.557-2.966 1.652-4.622 5.343-3.816 8.666 0.757 3.475 4.065 6.203 7.628 6.154 1.64 8e-3 3.278-0.527 4.609-1.493 1.763 1.764 3.514 3.541 5.284 5.296 1.069 0.95 2.925-0.648 1.895-1.794l-0.132-0.15 1e-3 1e-3zm-11.59-3.724c-3.059 0.084-5.875-2.555-6.02-5.627-0.24-2.88 1.846-5.751 4.679-6.336 2.73-0.65 5.796 0.861 6.878 3.477 1.179 2.651 0.173 6.093-2.342 7.575-0.953 0.594-2.072 0.916-3.191 0.911h-4e-3z" fill="#636363"/>
    <path d="m215.79 15.884-4.413-4.432c1.846-2.456 1.62-6.188-0.484-8.421-2.021-2.268-5.627-2.869-8.25-1.325-2.52 1.405-3.926 4.542-3.242 7.367 0.644 2.951 3.457 5.273 6.484 5.229 1.395 7e-3 2.789-0.448 3.919-1.268 1.497 1.499 2.984 3.008 4.489 4.502 0.909 0.807 2.487-0.551 1.611-1.526l-0.112-0.127-2e-3 1e-3zm-9.851-3.165c-2.599 0.072-4.993-2.171-5.116-4.781-0.204-2.45 1.568-4.89 3.974-5.386 2.321-0.553 4.927 0.731 5.846 2.956 1.003 2.251 0.148 5.176-1.992 6.436-0.806 0.505-1.758 0.78-2.711 0.775h-1e-3z" fill="#636363"/>
    <path d="m99.63 150.25h21.913v1.992h-21.913v-1.992zm0 6.972h21.913v1.992h-21.913v-1.992zm0 6.972h21.913v1.992h-21.913v-1.992z" fill="#fff"/>
    </g><g transform="translate(-49.825 .0017086)" fill="#fff" fill-rule="nonzero">
        <path d="m57.291 159.27c2.762 0 3.755-2.51 4.016-4.57 0.32-2.54-1.003-4.449-4.014-4.449-3.012 0-4.336 1.91-4.016 4.449 0.261 2.062 1.255 4.572 4.014 4.57z"/>
        <path d="m64.761 165.24c-0.03-0.8-0.134-1.604-0.287-2.39-0.186-0.954-0.424-2.351-1.342-2.974-0.529-0.358-1.217-0.478-1.824-0.693-0.296-0.105-0.561-0.209-0.809-0.328-0.837 0.833-1.932 1.27-3.207 1.27-1.272 0-2.366-0.438-3.207-1.271-0.246 0.119-0.511 0.226-0.807 0.331-0.608 0.216-1.295 0.334-1.825 0.693-0.916 0.621-1.155 2.019-1.341 2.973-0.153 0.786-0.256 1.59-0.286 2.39-0.023 0.62 0.313 0.707 0.884 0.893 0.717 0.236 1.454 0.409 2.197 0.551 1.435 0.275 2.916 0.488 4.389 0.496 1.474-0.01 2.953-0.219 4.388-0.495 0.743-0.142 1.481-0.315 2.196-0.55 0.573-0.186 0.91-0.272 0.887-0.892l-6e-3 -4e-3z"/>
    </g>
    <path d="m150.34 380.24 5.377 5.777 5.379-5.777" fill="none" stroke="#878a9e" stroke-linecap="round" stroke-linejoin="round" stroke-width="1.79px"/>
    <path d="m107.6 249.86-1.405 1.404 5.558 5.568h-12.122v1.992h12.122l-5.558 5.567 1.405 1.405 7.968-7.968-7.968-7.968z" fill="#fff" fill-rule="nonzero"/>
    <g transform="translate(-.98879)" fill="#fff" fill-rule="nonzero" stroke="#fff">
        <path d="m60.54 54.558c-0.103 0.247-0.462 0.506-0.658 0.321l-1.823-1.728v7.487c0 0.367-0.422 0.665-0.788 0.665-0.367 0-0.789-0.298-0.789-0.665v-7.256l-1.78 1.497c-0.205 0.173-0.51-0.162-0.613-0.41s-0.134-0.445 0.056-0.635l2.656-2.657c0.26-0.259 0.679-0.259 0.939 0l2.656 2.657c0.19 0.19 0.247 0.475 0.144 0.724z" stroke-width=".63px"/>
        <path d="m61.527 65.591-8.456 1e-3c-1.099 0-1.992-0.895-1.992-1.992v-5c0-0.367 0.297-0.665 0.664-0.665s0.663 0.298 0.663 0.665v5c0 0.365 0.299 0.663 0.665 0.663h8.456c0.366 0 0.664-0.298 0.664-0.664v-5c0-0.367 0.298-0.664 0.665-0.664 0.366 0 0.663 0.297 0.663 0.664v5c0 1.098-0.894 1.992-1.992 1.992z" stroke-width=".53px"/>
    </g>
    <path d="m10.749 57.376c-0.103-0.248-0.505-0.503-0.702-0.321l-1.779 1.639v-7.047c0-0.366-0.422-0.664-0.789-0.664-0.366 0-0.789 0.298-0.789 0.664v6.949l-1.867-1.63c-0.201-0.176-0.51 0.162-0.613 0.41-0.103 0.249-0.046 0.534 0.144 0.724l2.656 2.656c0.26 0.26 0.679 0.26 0.939 0l2.656-2.656c0.19-0.19 0.247-0.475 0.144-0.724z" fill="#fff" fill-rule="nonzero" stroke="#fff" stroke-width=".63px"/>
    <path d="m12.732 65.591-10.443 1e-3c-1.099 0-1.992-0.895-1.992-1.992v-6.068c0-0.367 0.297-0.664 0.663-0.664 0.367 0 0.665 0.297 0.665 0.664v6.068c0 0.365 0.297 0.663 0.664 0.663h10.443c0.366 0 0.664-0.298 0.664-0.664v-6.024c0-0.367 0.297-0.664 0.664-0.664 0.366 0 0.664 0.297 0.664 0.664v6.024c0 1.098-0.893 1.992-1.992 1.992z" fill="#fff" fill-rule="nonzero" stroke="#fff" stroke-width=".53px"/>
    <g transform="matrix(.98396 0 0 1.0163 148.43 118.53)">



                    <g transform="scale(1.0163 .98396)">
                        <path d="m-110.56 267.78c0-1.1-0.892-1.992-1.992-1.992h-33.864c-1.1 0-1.992 0.892-1.992 1.992v33.864c0 1.1 0.892 1.992 1.992 1.992h33.864c1.1 0 1.992-0.892 1.992-1.992v-33.864z" fill="#191b26"/>
                    </g>
                    <path d="m-138.42 269.9c-2.078 0.052-3.804 0.765-5.179 2.141-1.374 1.374-2.088 3.1-2.14 5.177v13.232h2.908v-5.88h4.411c2.078-0.054 3.809-0.772 5.194-2.157 1.384-1.384 2.103-3.116 2.156-5.195-0.053-2.077-0.772-3.803-2.156-5.177-1.385-1.376-3.116-2.089-5.194-2.141zm-4.411 11.761v-4.443c0.031-1.255 0.459-2.297 1.286-3.123 0.828-0.827 1.869-1.256 3.125-1.287 1.271 0.031 2.321 0.46 3.152 1.287 0.831 0.826 1.261 1.868 1.291 3.123-0.03 1.272-0.46 2.323-1.291 3.154-0.831 0.829-1.881 1.259-3.152 1.289h-4.411z" fill="#fff" fill-rule="nonzero"/>
                    <path d="m-125.2 279.09h0.104l4.087 5.448h3.562l-5.553-7.544 4.924-7.124h-3.562l-3.458 5.028h-0.104l-3.457-5.028h-3.563l4.924 7.124-5.553 7.544h3.563l4.086-5.448z" fill="#fff" fill-rule="nonzero"/>



    </g>
    <g transform="translate(60.288 391.44)">
        <rect y=".849" width="23.904" height="23.904" fill="none"/>
    </g>
    <g transform="matrix(.63889 0 0 .63889 50.162 99.941)">
        <path d="m11.972 0.849c6.588 0.011 11.932 5.361 11.932 11.952 0 6.596-5.354 11.952-11.952 11.952-6.596 0-11.952-5.356-11.952-11.952 0-6.591 5.346-11.941 11.933-11.952h0.039zm3.679 15.936h-7.397c0.636 4.249 2.233 6.972 3.698 6.972 1.466 0 3.063-2.723 3.699-6.972m6.509 0h-5.501c-0.424 2.973-1.315 5.38-2.475 6.744 3.655-0.757 6.645-3.337 7.976-6.744m-14.914 0h-5.502c1.333 3.407 4.323 5.987 7.977 6.744-1.159-1.364-2.051-3.771-2.475-6.744m-0.122-6.972h-5.714c-0.329 1.161-0.738 3.375 0 5.976h5.714c-0.188-1.807-0.215-3.91 0-5.976m8.656 0h-7.655c-0.194 1.793-0.224 3.911 0 5.976h7.655c0.195-1.804 0.223-3.914 0-5.976m6.715 0h-5.713c0.062 0.589 0.307 3.007 0 5.976h5.713c0.738-2.602 0.33-4.816 0-5.976m-12.774-7.74c-3.654 0.757-6.644 3.336-7.977 6.744h5.502c0.424-2.973 1.316-5.382 2.475-6.744m5.93 6.744c-0.636-4.249-2.233-6.972-3.699-6.972-1.465 0-3.062 2.723-3.698 6.972h7.397zm-1.467-6.744c1.16 1.362 2.051 3.771 2.475 6.744h5.501c-1.331-3.408-4.321-5.987-7.976-6.744" fill="#fff" stroke="#fff" stroke-width="1.04px"/>
    </g>
    <g transform="matrix(.21918 0 0 .21918 99.606 378.49)">
        <path d="m36.355 73.558c-3.745 0-6.425-2.817-8.571-5.07-0.913-1.11-2.005-2.061-3.228-2.816-1.492-0.371-3.035-0.49-4.567-0.35-3.228 0-6.865 0.121-9.423-2.421s-2.406-6.181-2.345-9.408c0.144-1.532 0.024-3.076-0.35-4.568-0.755-1.222-1.707-2.313-2.816-3.227-2.192-2.071-5.055-4.75-5.055-8.495s2.863-6.424 5.054-8.571c1.11-0.913 2.062-2.005 2.817-3.228 0.374-1.492 0.493-3.034 0.35-4.566 0-3.213-0.121-6.866 2.42-9.409 2.543-2.543 6.197-2.481 9.424-2.42 1.532 0.142 3.075 0.026 4.567-0.351 1.223-0.755 2.312-1.706 3.228-2.816 2.07-2.131 4.75-4.993 8.495-4.993s6.424 2.862 8.57 5.069c0.914 1.11 2.005 2.061 3.228 2.816 1.492 0.375 3.035 0.494 4.567 0.351 3.228 0 6.867-0.122 9.423 2.42 2.558 2.543 2.482 6.196 2.422 9.408-0.144 1.532-0.025 3.076 0.349 4.568 0.755 1.222 1.708 2.314 2.817 3.227 2.116 2.071 4.978 4.75 4.978 8.495s-2.862 6.424-5.054 8.571c-1.11 0.913-2.061 2.005-2.816 3.228-0.375 1.492-0.493 3.035-0.351 4.567 0 3.212 0.123 6.866-2.42 9.408-2.542 2.543-6.196 2.481-9.424 2.42-1.531-0.144-3.075-0.025-4.567 0.351-1.222 0.755-2.312 1.706-3.227 2.817-2.071 2.13-4.75 4.993-8.495 4.993z" fill="#fff" fill-opacity=".1" fill-rule="nonzero"/>
    </g>
    <g transform="matrix(.12524 0 0 .12524 95.415 383.34)">

            <g transform="matrix(4.5625 0 0 4.5625 36.607 -26.672)">
                <path d="m14 28c-1.442 0-2.474-1.085-3.301-1.952-0.351-0.428-0.772-0.794-1.243-1.085-0.574-0.143-1.169-0.189-1.758-0.135-1.243 0-2.644 0.047-3.629-0.932s-0.927-2.38-0.903-3.623c0.055-0.59 9e-3 -1.184-0.135-1.759-0.291-0.47-0.657-0.891-1.085-1.243-0.844-0.797-1.946-1.829-1.946-3.271s1.102-2.474 1.946-3.301c0.428-0.351 0.794-0.772 1.085-1.243 0.144-0.574 0.19-1.169 0.135-1.758 0-1.237-0.047-2.644 0.932-3.623 0.979-0.98 2.386-0.956 3.629-0.933 0.59 0.056 1.184 0.01 1.759-0.134 0.471-0.291 0.89-0.658 1.243-1.085 0.797-0.821 1.829-1.923 3.271-1.923s2.474 1.102 3.301 1.952c0.351 0.428 0.772 0.794 1.243 1.085 0.574 0.144 1.168 0.19 1.758 0.135 1.243 0 2.644-0.047 3.629 0.932s0.956 2.386 0.932 3.623c-0.055 0.59-9e-3 1.184 0.135 1.759 0.291 0.47 0.658 0.891 1.085 1.243 0.815 0.797 1.917 1.829 1.917 3.271s-1.102 2.474-1.946 3.301c-0.428 0.351-0.794 0.772-1.085 1.243-0.144 0.574-0.19 1.168-0.135 1.758 0 1.237 0.047 2.644-0.932 3.624-0.979 0.979-2.386 0.955-3.629 0.932-0.59-0.056-1.184-0.01-1.759 0.135-0.47 0.29-0.89 0.657-1.243 1.084-0.797 0.821-1.829 1.923-3.271 1.923zm-5.734-5.599c0.72-0.033 1.44 0.077 2.117 0.323 0.794 0.401 1.497 0.962 2.063 1.647 0.511 0.534 1.173 1.202 1.548 1.202s1.038-0.668 1.548-1.202c0.567-0.685 1.269-1.246 2.064-1.647 0.869-0.29 1.789-0.397 2.702-0.317 0.68 0 1.618 0 1.87-0.223s0.235-1.172 0.223-1.87c-0.08-0.913 0.027-1.833 0.317-2.703 0.401-0.794 0.962-1.496 1.647-2.063 0.534-0.51 1.202-1.173 1.202-1.548s-0.668-1.038-1.202-1.548c-0.685-0.567-1.246-1.269-1.647-2.063-0.29-0.87-0.398-1.79-0.317-2.703 0-0.68 0-1.618-0.223-1.87-0.222-0.252-1.172-0.241-1.87-0.223-0.913 0.08-1.832-0.028-2.702-0.317-0.795-0.401-1.497-0.962-2.064-1.647-0.51-0.534-1.173-1.202-1.548-1.202s-1.037 0.668-1.548 1.202c-0.567 0.685-1.269 1.246-2.063 1.647-0.87 0.289-1.79 0.397-2.703 0.317-0.68 0-1.618 0-1.87 0.223s-0.235 1.172-0.223 1.87c0.08 0.913-0.027 1.833-0.316 2.703-0.402 0.794-0.963 1.496-1.648 2.063-0.533 0.51-1.202 1.173-1.202 1.548s0.669 1.038 1.202 1.548c0.685 0.567 1.246 1.269 1.648 2.063 0.289 0.87 0.397 1.79 0.316 2.703 0 0.68 0 1.618 0.223 1.87s1.172 0.235 1.87 0.223l0.586-6e-3z" fill="#fff" fill-rule="nonzero"/>
            </g>
            <g transform="matrix(4.5625 0 0 4.5625 36.607 -26.672)">
                <path d="m12.827 18.139c-0.274 1e-3 -0.541-0.093-0.756-0.264l-2.931-2.345c-0.521-0.417-0.605-1.179-0.188-1.7 0.418-0.521 1.179-0.605 1.701-0.188l2.087 1.671 4.508-4.508c0.473-0.473 1.239-0.473 1.712 0 0.472 0.473 0.472 1.239 0 1.712l-5.276 5.276c-0.229 0.224-0.536 0.348-0.857 0.346z" fill="#fff" fill-rule="nonzero"/>
            </g>

    </g>
<path d="m76.125 209.75-0.5812-0.4152-4.5385 3.2417v-10.479c0-0.59477 0.48215-1.0769 1.0769-1.0769h6.9231c0.5948 0 1.0769 0.48216 1.0769 1.0769v10.479z" fill="#fff" stroke="#fff" stroke-width="2"/><path d="m56.125 209.72-0.58124-0.41517-0.58124 0.41517-3.9572 2.8266v-10.479c0-0.59477 0.48215-1.0769 1.0769-1.0769h6.9231c0.59477 0 1.0769 0.48216 1.0769 1.0769v10.479z" fill="none" stroke="#fff" stroke-width="2"/><path d="m205.95 133.06-0.48103-0.34364-3.7562 2.683v-8.6728c0-0.49226 0.39905-0.89129 0.89129-0.89129h5.7298c0.49228 0 0.89128 0.39905 0.89128 0.89129v8.6728z" fill="#666" stroke="#666" stroke-width="1.6553"/></svg>
